<?xml version="1.0" encoding="UTF-8"?><svg id="Layer_1" xmlns="http://www.w3.org/2000/svg" viewBox="0 0 400.33 54.8"><defs><style>.cls-1{fill:#688f47;}.cls-2{fill:#f6cd64;}.cls-3{fill:#fff;}.cls-4{fill:#3f2d0a;}.cls-5{fill:#83af60;}.cls-6{fill:#614613;}.cls-7{fill:#7a6b5c;fill-rule:evenodd;}</style></defs><g id="Face"><g id="Group_54"><g id="Bg1"><g id="Group_53"><g id="Group_49"><path id="Path_16" class="cls-1" d="M385.01,38.84c-5.76,9.53-11.27,8.87-13.41,14.24-2.14,5.38-3.72-3.32-3.65-5.19s3.13-15.87,8.68-17.93,11.57,3.61,8.38,8.87Z"/></g><g id="Group_50"><path id="Path_17" class="cls-5" d="M364.67,27.86c.36-.39,.9-.58,1.43-.5,2.07,.33,4.13,.76,6.16,1.3,7.46,1.83,15.91,3.9,25.34-2.45,.81-.51,1.88-.28,2.4,.52,.55,.76,.39,1.82-.37,2.38,0,0-.02,.01-.02,.02-10.63,7.16-20.26,4.8-27.99,2.9-2.07-.51-4.02-.99-5.8-1.23-.95-.14-1.64-.99-1.57-1.95,.03-.36,.18-.71,.42-.98Z"/></g><g id="Group_51"><path id="Path_18" class="cls-2" d="M347.28,5.01l.07,49.42c1.9,.3,3.83,.42,5.75,.36h.34c14.2-.08,23.31-9.85,26.9-18.33,1.03-2.72,3.28-3.71,3.15-5.93-.12-2.18-3.12-3.78-4.12-5.58-3.7-12.22-15.1-20.46-27.86-20.16-1.46,0-2.87,.08-4.24,.23Z"/></g><g id="Group_52"><path id="Path_19" class="cls-5" d="M384.5,30.96s5.63-4.54,1.93-14.04-12.37-10.39-16.56-15.04c-4.19-4.65-3.41,.39-2.42,3.77s1.45,11.16,6.25,17.36,8.36,7.77,10.8,7.95Z"/></g></g></g></g><path class="cls-7" d="M352.5,35.64c.75-1.92,.68-5.92,.68-5.92h-.02c.05-2.01-.18-4.02-.68-5.97-.4-1.06-1.82-3.38-1.99-5.49-.13-2.71-.09-5.43,.11-8.14,.37-.96,.83-1.89,1.37-2.76,.19-.84,.26-1.7,.21-2.57l-31.82,.03h0s-295.35,0-295.35,0C11.19,4.81,0,16,0,29.81s11.19,25,25,25H320.34s31.87-.03,31.87-.03c.05-.93-.02-1.87-.22-2.78-.54-.91-1-1.87-1.37-2.86-.17-2.65-.19-5.31-.05-7.96,.17-2.1,1.52-4.51,1.93-5.54Z"/><g id="Features"><g id="Mouth"><g id="Group_56"><path id="Path_21" class="cls-4" d="M346.87,29.34c.01-4.25,.45-8.49,1.32-12.65,.17-.95,0-2.81-2.63-2.81-5.27,0-11.85,6.46-11.85,15.46s6.58,15.46,11.85,15.46c2.63,0,2.81-1.86,2.63-2.81-.86-4.16-1.3-8.4-1.32-12.65Z"/></g><g id="Group_57"><path id="Path_22" class="cls-3" d="M346.34,16.69s-1.41,4.22-1.41,12.65,1.41,12.65,1.41,12.65c0,0-5.65-2.81-5.65-12.65s5.65-12.65,5.65-12.65Z"/></g></g><g id="Eyes"><g id="Eye"><ellipse id="Ellipse_3" class="cls-6" cx="360.1" cy="19.18" rx="6.11" ry="4.36"/></g><g id="Eye1"><ellipse id="Ellipse_4" class="cls-6" cx="360.1" cy="39.5" rx="6.11" ry="4.36"/></g></g></g></g></svg>